<?xml version="1.0" encoding="utf-8"?>
<!-- Generator: Adobe Illustrator 18.0.0, SVG Export Plug-In . SVG Version: 6.00 Build 0)  -->
<!DOCTYPE svg PUBLIC "-//W3C//DTD SVG 1.1//EN" "http://www.w3.org/Graphics/SVG/1.1/DTD/svg11.dtd">
<svg version="1.1" id="Calque_1" xmlns="http://www.w3.org/2000/svg" xmlns:xlink="http://www.w3.org/1999/xlink" x="0px" y="0px"
	 viewBox="0 0 830.7 1201.9" enable-background="new 0 0 830.7 1201.9" xml:space="preserve">
<g>
	<g>
		<g>
			<g>
				<path fill="#E8B787" d="M170.6,270.3c0,0-152.5,33.9-72.6,484.7c3.9,61,26.8,227,114.2,321.9s118,108.4,175.4,111.9
					s0-972.7,0-972.7S292.5,189,170.6,270.3z"/>
			</g>
			<g>
				<path fill="#E8B787" d="M640.5,270.3c-121.9-81.3-217.4-54.2-217.4-54.2s-57.1,976.2,0,972.7c57.1-3.5,87.7-17.1,175.4-111.9
					S709.2,816,712.8,755C793.1,304.1,640.5,270.3,640.5,270.3z"/>
			</g>
		</g>
		<g>
			<path fill="#E8B787" d="M337.4,217.1l3.2,608.9c0,0-14.2,349.3,16.8,359.3c30.6,10,96.4,0,96.4,0l38.1-972l-150.9-1.6"/>
		</g>
	</g>
	<path fill="#FFFFFF" d="M342.2,598c0,0-71.9-88-183.8,16.1C198.4,624.1,247.1,649.9,342.2,598z"/>
	<circle fill="#00A19A" stroke="#1D1D1B" stroke-width="0.25" stroke-miterlimit="10" cx="250.3" cy="596.3" r="32.9"/>
	<circle fill="#1D1D1B" cx="250.3" cy="596.3" r="15.2"/>
	<path fill="#1D1D1B" d="M438,513.8c0,0,42.6,30.6,118,0c44.8,0,59-2.6,70.6,18.7c11.9,21.3,11.9,21.3,11.9,21.3
		C626.6,532.8,584.1,438.3,438,513.8z"/>
	<path fill="#1D1D1B" d="M335.1,513.8c0,0-42.6,30.6-118,0c-44.8,0-59-2.6-70.6,18.7c-11.9,21.3-11.9,21.3-11.9,21.3
		C146.4,532.8,189,438.3,335.1,513.8z"/>
	<path fill="#FFFFFF" d="M438.9,598c0,0,71.9-88,183.8,16.1C582.8,624.1,533.8,649.9,438.9,598z"/>
	<circle fill="#00A19A" stroke="#1D1D1B" stroke-width="0.25" stroke-miterlimit="10" cx="530.9" cy="596.3" r="32.9"/>
	<circle fill="#1D1D1B" cx="530.9" cy="596.3" r="15.2"/>
	<g>
		<path fill="#E8B787" d="M734.4,596.3c0,0,21.6-61,78.4-15.2c56.8,45.8-39,187.4-39,187.4s-67.4,28.4-70.6-19"/>
	</g>
	<g>
		<path fill="#E8B787" d="M104.5,596.3c0,0-21.6-61-78.4-15.2s39,187.4,39,187.4s67.4,28.4,70.6-19"/>
	</g>
	<path fill="#634E42" d="M84.2,638.9c0,0,14.8-301.5,106.1-378.3c76.8-11,167.7-19.7,183.8-31.9c16.1-12.3,78.4,15.5,90.3,0
		s93.8,32.9,116.4,25.8c22.6-6.8,184.5,160.9,155.4,384.4c4.8-221.6-28.4-422.2-60.6-443.4c-31.9-21.3-64.2-63.5-64.2-63.5
		s-27.4-3.5-43.9-17.7c-16.8-14.2-2.3-39-48.7-39c-46.4,0-57.1,0-78.4-31.9C419,11.3,372.8,7.8,372.8,7.8S362.2,32.6,337.4,22
		S285.1,29,285.1,29L218,78.7l-45.2,14.2c10.6,28.4-60.3,84.8-60.3,84.8v33.9c0,0-39.3,68.7-28.7,97.1
		C94.5,337,66.1,562.2,84.2,638.9z"/>
	<g opacity="0.52">
		<path fill="#936037" d="M554.4,951.4c0,0-45.2-112.6-141.3-112.6c-96.4,0-155.4,120.9-155.4,120.9l-158-150
			c0,0,60.3,339.9,297.4,379.9c137.4-16.8,243.8-115.5,317.7-405.1C594.4,901.1,554.4,951.4,554.4,951.4z M503.1,1075.6
			c-67.7,77.1-85.8-50.6-87.1-60.6c-6.8,1-13.5,1-20.3,0.6c-3.2,14.8-30,129-92.6,64.8c-67.1-68.7-11.3-132.6-11.3-132.6
			s130.3-90.6,232.9,0C524.1,947.5,573.8,995.3,503.1,1075.6z"/>
	</g>
	<polygon fill="#FCF7E0" points="297.7,953.7 363.5,942.7 495.4,949.5 516.7,955.3 442.2,994.6 366.1,994.6 317,972.1 	"/>
	<g>
		<path fill="#C14084" d="M297.7,953.7c0,0,80.6-10.6,97.4-1.9c22.9-0.3,99.7-2.6,110.9,5.8c22.3-6.1,22.3-6.1,22.3-6.1
			s-89.7-28.1-123.8-8.7C375.4,937.6,345.1,930.8,297.7,953.7z"/>
		<path fill="#C14084" d="M297.7,955c0,0,103.5,64.2,230.9-5.5c-62.2,44.8-82.6,70.6-115.5,71.6C380.3,1022,326.4,998.5,297.7,955z"
			/>
	</g>
	<path fill="#B17F4A" d="M463.8,736.6c0,0,21.9,47.1,82.2,104.8"/>
	<path fill="#B17F4A" d="M336.4,736.6c0,0-21.9,47.1-82.2,104.8"/>
	<path fill="#936037" d="M383.5,611.5c0,0-40.6,82.6,0,123.5c0,27.1,0,27.1,0,27.1s-48.4-5.8-48.4,23.2s17.4,31,17.4,31
		s-69.7-23.2-17.4-65.8"/>
</g>
</svg>
