<?xml version="1.0" encoding="utf-8"?>
<!-- Generator: Adobe Illustrator 18.0.0, SVG Export Plug-In . SVG Version: 6.00 Build 0)  -->
<!DOCTYPE svg PUBLIC "-//W3C//DTD SVG 1.1//EN" "http://www.w3.org/Graphics/SVG/1.1/DTD/svg11.dtd">
<svg version="1.1" id="Calque_1" xmlns="http://www.w3.org/2000/svg" xmlns:xlink="http://www.w3.org/1999/xlink" x="0px" y="0px"
	 viewBox="0 0 640 480" enable-background="new 0 0 640 480" xml:space="preserve">
<g>
	<path fill="#E8B787" d="M288.9,86.7l1.3,243.2c0,0-5.7,139.5,6.7,143.5c12.2,4,22.5-0.4,22.5-0.4l15.2-388.2l-44.3-0.3"/>
</g>
<path fill="#E8B787" d="M308.9,86.3c0,0-38-10.8-86.7,21.6c0,0-60.9,13.5-29,193.6c1.6,24.4,10.7,90.7,45.6,128.6s47.1,43.3,70,44.7
	C331.8,476.2,308.9,86.3,308.9,86.3z M217.4,245.3c44.7-41.6,73.4-6.4,73.4-6.4C252.8,259.5,233.4,249.2,217.4,245.3z"/>
<path fill="#1D1D1B" d="M288,205.2c0,0-17,12.2-47.1,0c-17.9,0-23.6-1-28.2,7.5c-4.8,8.5-4.8,8.5-4.8,8.5
	C212.6,212.8,229.6,175,288,205.2z"/>
<path fill="#E8B787" d="M409.9,107.9c-48.7-32.5-86.8-21.6-86.8-21.6s-22.8,389.9,0,388.5c22.8-1.4,35-6.8,70-44.7
	s44.2-104.2,45.6-128.6C470.9,121.4,409.9,107.9,409.9,107.9z M329.4,238.8c0,0,28.7-35.1,73.4,6.4
	C386.9,249.2,367.3,259.5,329.4,238.8z"/>
<g>
	<path fill="#E8B787" d="M447.4,238.1c0,0,8.6-24.4,31.3-6.1c22.7,18.3-15.6,74.8-15.6,74.8s-26.9,11.3-28.2-7.6"/>
</g>
<g>
	<path fill="#E8B787" d="M195.9,238.1c0,0-8.6-24.4-31.3-6.1s15.6,74.8,15.6,74.8s26.9,11.3,28.2-7.6"/>
</g>
<path fill="#634E42" d="M187.7,255.2c0,0,5.9-120.4,42.4-151.1c30.7-4.4,67-7.9,73.4-12.7c6.4-4.9,31.3,6.2,36.1,0
	c4.8-6.2,37.5,13.1,46.5,10.3c9-2.7,73.7,64.3,62.1,153.5c1.9-88.5-11.3-168.6-24.2-177.1c-12.7-8.5-25.6-25.4-25.6-25.4
	s-10.9-1.4-17.5-7.1c-6.7-5.7-0.9-15.6-19.4-15.6c-18.5,0-22.8,0-31.3-12.7c-8.5-12.8-27-14.2-27-14.2s-4.2,9.9-14.1,5.7
	S268,11.6,268,11.6l-26.8,19.8l-18.1,5.7c4.2,11.3-24.1,33.9-24.1,33.9v13.5c0,0-15.7,27.4-11.5,38.8
	C191.9,134.6,180.5,224.5,187.7,255.2z"/>
<g opacity="0.52">
	<path fill="#936037" d="M375.5,380c0,0-18.1-45-56.4-45c-38.5,0-62.1,48.3-62.1,48.3l-63.1-59.9c0,0,24.1,135.7,118.8,151.7
		c54.9-6.7,97.4-46.1,126.9-161.8C391.5,359.9,375.5,380,375.5,380z M355,429.6c-27,30.8-34.3-20.2-34.8-24.2
		c-2.7,0.4-5.4,0.4-8.1,0.2c-1.3,5.9-12,51.5-37,25.9c-26.8-27.4-4.5-53-4.5-53s52-36.2,93,0C363.4,378.4,383.3,397.5,355,429.6z"/>
</g>
<polygon fill="#FCF7E0" points="273,380.9 299.3,376.5 352,379.2 360.5,381.5 330.7,397.2 300.3,397.2 280.7,388.2 "/>
<g>
	<path fill="#C14084" d="M273,380.9c0,0,32.2-4.2,38.9-0.8c9.1-0.1,39.8-1,44.3,2.3c8.9-2.4,8.9-2.4,8.9-2.4s-35.8-11.2-49.4-3.5
		C304,374.4,291.9,371.7,273,380.9z"/>
	<path fill="#C14084" d="M273,381.4c0,0,41.3,25.6,92.2-2.2c-24.8,17.9-33,28.2-46.1,28.6C306,408.2,284.5,398.8,273,381.4z"/>
</g>
<path fill="#B17F4A" d="M339.3,294.2c0,0,8.7,18.8,32.8,41.9"/>
<path fill="#B17F4A" d="M288.5,294.2c0,0-8.7,18.8-32.8,41.9"/>
<path fill="#936037" d="M307.3,244.2c0,0-16.2,33,0,49.3c0,10.8,0,10.8,0,10.8S288,302,288,313.6s6.9,12.4,6.9,12.4
	s-27.8-9.3-6.9-26.3"/>
<path fill="#1D1D1B" d="M329,205.2c0,0,17,12.2,47.1,0c17.9,0,23.6-1,28.2,7.5c4.8,8.5,4.8,8.5,4.8,8.5
	C404.4,212.8,387.4,175,329,205.2z"/>
</svg>
