<?xml version="1.0" encoding="UTF-8" standalone="no"?>
<!-- Generator: Adobe Illustrator 19.1.0, SVG Export Plug-In . SVG Version: 6.00 Build 0)  -->

<svg
   xmlns:dc="http://purl.org/dc/elements/1.1/"
   xmlns:cc="http://creativecommons.org/ns#"
   xmlns:rdf="http://www.w3.org/1999/02/22-rdf-syntax-ns#"
   xmlns:svg="http://www.w3.org/2000/svg"
   xmlns="http://www.w3.org/2000/svg"
   xmlns:sodipodi="http://sodipodi.sourceforge.net/DTD/sodipodi-0.dtd"
   xmlns:inkscape="http://www.inkscape.org/namespaces/inkscape"
   version="1.1"
   id="Layer_1"
   x="0px"
   y="0px"
   viewBox="0 0 22.508475 22.779662"
   enable-background="new 0 0 64 64"
   xml:space="preserve"
   inkscape:version="0.48.5 r10040"
   width="100%"
   height="100%"
   sodipodi:docname="croix.svg"><metadata
     id="metadata42"><rdf:RDF><cc:Work
         rdf:about=""><dc:format>image/svg+xml</dc:format><dc:type
           rdf:resource="http://purl.org/dc/dcmitype/StillImage" /></cc:Work></rdf:RDF></metadata><defs
     id="defs40" /><sodipodi:namedview
     pagecolor="#ffffff"
     bordercolor="#666666"
     borderopacity="1"
     objecttolerance="10"
     gridtolerance="10"
     guidetolerance="10"
     inkscape:pageopacity="0"
     inkscape:pageshadow="2"
     inkscape:window-width="1280"
     inkscape:window-height="734"
     id="namedview38"
     showgrid="false"
     fit-margin-top="0"
     fit-margin-left="0"
     fit-margin-right="0"
     fit-margin-bottom="0"
     inkscape:showpageshadow="false"
     inkscape:zoom="3.6875"
     inkscape:cx="32"
     inkscape:cy="-21.423728"
     inkscape:window-x="0"
     inkscape:window-y="27"
     inkscape:window-maximized="1"
     inkscape:current-layer="Layer_1" /><g
     id="Cancel"
     transform="scale(0.35169492,0.35593221)"><path
       d="m 43.707001,19.292999 c -0.390602,-0.390699 -1.023403,-0.390699 -1.414002,0 L 32,29.585899 21.707001,19.292999 c -0.390601,-0.390699 -1.023402,-0.390699 -1.414002,0 -0.390699,0.390601 -0.390699,1.023402 0,1.414002 L 30.585899,31 20.292999,41.292999 c -0.390699,0.390602 -0.390699,1.0234 0,1.414002 C 20.4883,42.902302 20.744101,43 21,43 c 0.255899,0 0.5117,-0.0977 0.707001,-0.292999 L 32,32.414101 42.292999,42.707001 C 42.488296,42.902302 42.744099,43 43,43 c 0.255898,0 0.511696,-0.0977 0.707001,-0.292999 0.390697,-0.390602 0.390697,-1.0234 0,-1.414002 L 33.414101,31 43.707001,20.707001 c 0.390697,-0.390601 0.390697,-1.023402 0,-1.414002 z"
       id="path4"
       inkscape:connector-curvature="0" /><path
       d="M 32,0 C 14.3269,0 0,14.3268 0,32 0,49.673099 14.3269,64 32,64 49.673101,64 64,49.673099 64,32 64,14.3268 49.673096,0 32,0 z m 0,62 C 15.4579,62 2,48.542099 2,32 2,15.457901 15.4579,2 32,2 48.5421,2 62,15.4579 62,32 62,48.5421 48.542099,62 32,62 z"
       id="path6"
       inkscape:connector-curvature="0" /></g><g
     id="g8"
     transform="translate(0,12.20339)" /><g
     id="g10"
     transform="translate(0,12.20339)" /><g
     id="g12"
     transform="translate(0,12.20339)" /><g
     id="g14"
     transform="translate(0,12.20339)" /><g
     id="g16"
     transform="translate(0,12.20339)" /><g
     id="g18"
     transform="translate(0,12.20339)" /><g
     id="g20"
     transform="translate(0,12.20339)" /><g
     id="g22"
     transform="translate(0,12.20339)" /><g
     id="g24"
     transform="translate(0,12.20339)" /><g
     id="g26"
     transform="translate(0,12.20339)" /><g
     id="g28"
     transform="translate(0,12.20339)" /><g
     id="g30"
     transform="translate(0,12.20339)" /><g
     id="g32"
     transform="translate(0,12.20339)" /><g
     id="g34"
     transform="translate(0,12.20339)" /><g
     id="g36"
     transform="translate(0,12.20339)" /></svg>