<?xml version="1.0" encoding="UTF-8" standalone="no"?>
<!-- Created with Inkscape (http://www.inkscape.org/) -->

<svg
   xmlns:dc="http://purl.org/dc/elements/1.1/"
   xmlns:cc="http://creativecommons.org/ns#"
   xmlns:rdf="http://www.w3.org/1999/02/22-rdf-syntax-ns#"
   xmlns:svg="http://www.w3.org/2000/svg"
   xmlns="http://www.w3.org/2000/svg"
   xmlns:sodipodi="http://sodipodi.sourceforge.net/DTD/sodipodi-0.dtd"
   xmlns:inkscape="http://www.inkscape.org/namespaces/inkscape"
   width="196.8"
   height="355.88022"
   id="svg2"
   version="1.1"
   inkscape:version="0.48.5 r10040"
   sodipodi:docname="envellope.svg">
  <defs
     id="defs4">
    <inkscape:path-effect
       effect="skeletal"
       id="path-effect3129"
       is_visible="true"
       pattern="M 0,0 0,10 10,5 z"
       copytype="single_stretched"
       prop_scale="1"
       scale_y_rel="false"
       spacing="0"
       normal_offset="0"
       tang_offset="0"
       prop_units="false"
       vertical_pattern="false"
       fuse_tolerance="0" />
    <inkscape:path-effect
       effect="skeletal"
       id="path-effect3125"
       is_visible="true"
       pattern="M 0,0 0,10 10,5 z"
       copytype="single_stretched"
       prop_scale="1"
       scale_y_rel="false"
       spacing="0"
       normal_offset="0"
       tang_offset="0"
       prop_units="false"
       vertical_pattern="false"
       fuse_tolerance="0" />
    <inkscape:path-effect
       effect="skeletal"
       id="path-effect3121"
       is_visible="true"
       pattern="M 0,5 10,10 10,0 z"
       copytype="single_stretched"
       prop_scale="1"
       scale_y_rel="false"
       spacing="0"
       normal_offset="0"
       tang_offset="0"
       prop_units="false"
       vertical_pattern="false"
       fuse_tolerance="0" />
    <inkscape:path-effect
       effect="skeletal"
       id="path-effect3117"
       is_visible="true"
       pattern="M 0,5 10,10 10,0 z"
       copytype="single_stretched"
       prop_scale="1"
       scale_y_rel="false"
       spacing="0"
       normal_offset="0"
       tang_offset="0"
       prop_units="false"
       vertical_pattern="false"
       fuse_tolerance="0" />
    <filter
       inkscape:label="Cross-smooth"
       inkscape:menu="Blurs"
       inkscape:menu-tooltip="Blur inner borders and intersections"
       color-interpolation-filters="sRGB"
       id="filter2987">
      <feGaussianBlur
         stdDeviation="3"
         id="feGaussianBlur2989" />
      <feColorMatrix
         result="fbSourceGraphic"
         values="1 0 0 0 0 0 1 0 0 0 0 0 1 0 0 0 0 0 6 -2.5 "
         id="feColorMatrix2991" />
    </filter>
    <filter
       inkscape:collect="always"
       id="filter3970"
       color-interpolation-filters="sRGB">
      <feGaussianBlur
         inkscape:collect="always"
         stdDeviation="2.4693141"
         id="feGaussianBlur3972" />
    </filter>
    <filter
       inkscape:label="Cross-smooth"
       inkscape:menu="Blurs"
       inkscape:menu-tooltip="Blur inner borders and intersections"
       color-interpolation-filters="sRGB"
       id="filter4009">
      <feGaussianBlur
         stdDeviation="3"
         id="feGaussianBlur4011" />
      <feColorMatrix
         result="fbSourceGraphic"
         values="1 0 0 0 0 0 1 0 0 0 0 0 1 0 0 0 0 0 6 -2.5 "
         id="feColorMatrix4013" />
    </filter>
  </defs>
  <sodipodi:namedview
     id="base"
     pagecolor="#ffffff"
     bordercolor="#666666"
     borderopacity="1.0"
     inkscape:pageopacity="0.0"
     inkscape:pageshadow="2"
     inkscape:zoom="2.0007459"
     inkscape:cx="100.45898"
     inkscape:cy="125.84843"
     inkscape:document-units="px"
     inkscape:current-layer="layer1"
     showgrid="false"
     inkscape:window-width="1280"
     inkscape:window-height="734"
     inkscape:window-x="0"
     inkscape:window-y="27"
     inkscape:window-maximized="1"
     showguides="true"
     inkscape:guide-bbox="true"
     fit-margin-top="0"
     fit-margin-left="0"
     fit-margin-right="0"
     fit-margin-bottom="0" />
  <metadata
     id="metadata7">
    <rdf:RDF>
      <cc:Work
         rdf:about="">
        <dc:format>image/svg+xml</dc:format>
        <dc:type
           rdf:resource="http://purl.org/dc/dcmitype/StillImage" />
        <dc:title></dc:title>
      </cc:Work>
    </rdf:RDF>
  </metadata>
  <g
     inkscape:label="Calque 1"
     inkscape:groupmode="layer"
     id="layer1"
     transform="translate(-85.597763,-228.0745)">
    <path
       style="opacity:0;fill:#d4ff2a"
       id="path3132"
       d="m 153.47931,267.53981 c -5.13793,-0.54345 -9.59324,2.21898 -14.54801,2.9939 -0.48875,0.12955 -0.97647,0.26301 -1.46623,0.38866 -3.38175,0.86767 -13.35781,5.88663 7.29312,-4.36649 0.31319,-0.1555 -0.41931,0.56228 -0.5891,0.86796 -0.22878,0.41187 -0.40206,0.8522 -0.60308,1.2783 -1.47135,4.39808 -3.86669,7.46068 -7.66071,10.0429 -4.19685,2.5021 -5.38584,6.69976 -6.16595,11.22633 -0.46331,6.02785 1.20325,11.79439 3.31002,17.36628 1.6164,4.50108 3.81751,8.72757 6.33705,12.77931 3.01608,3.77335 2.79503,8.25974 3.21,12.84677 0.41274,4.25816 2.98449,7.00457 6.36133,9.30996 4.43967,2.38599 9.62472,2.39941 14.53967,2.59566 6.76573,0.0329 13.23466,-1.67068 19.68984,-3.45465 5.71185,-2.04352 11.29175,-4.4875 16.62909,-7.37904 -1.79728,1.18275 6.96493,-3.77832 5.24004,-2.80401 -2.71223,1.53201 -5.63666,2.73524 -8.14269,4.5854 -0.33282,0.24571 0.68342,1.0466 0.30087,1.20407 -3.59773,1.48091 -21.46421,5.35068 -23.52395,5.82112 -4.56487,0.89316 -9.12974,1.78633 -13.69461,2.6795 0,0 8.64379,-6.53993 8.64379,-6.53993 l 0,0 c 4.54833,-0.89696 9.09665,-1.79392 13.64498,-2.69087 4.687,-1.12455 9.38036,-2.22288 14.06099,-3.37364 3.57746,-0.87955 7.05493,-2.27889 10.71276,-2.71716 0.52405,-0.0628 1.27933,1.01298 0.85796,1.3308 -5.19602,3.91909 -11.47437,6.73614 -17.24655,9.85755 -5.40145,2.80861 -10.9962,5.30483 -16.79197,7.18065 -6.50934,1.79499 -13.10179,3.25742 -19.90501,3.15824 -5.1226,-0.23269 -10.48013,-0.36576 -14.99379,-3.10067 -3.56637,-2.58656 -6.34006,-5.64014 -6.85906,-10.20742 -0.2082,-2.3806 -0.0559,-6.99609 -0.9064,-9.05592 -0.49429,-1.19716 -1.75655,-1.97909 -2.05304,-3.29888 -2.55408,-4.1207 -4.73869,-8.44772 -6.37981,-13.01793 -2.1743,-5.74308 -3.88613,-11.67879 -3.63692,-17.88778 0.6913,-4.61268 1.59107,-9.35444 5.75222,-12.1166 3.84268,-2.41883 6.56504,-4.87301 7.86363,-9.40014 0.18863,-0.4356 0.39001,-0.8659 0.56588,-1.3068 0.15767,-0.39527 0.0862,-0.95567 0.43428,-1.20052 5.89126,-4.14435 8.71354,-6.64716 14.61647,-7.71682 4.96024,-0.96822 9.58217,-3.55694 14.79499,-2.71182 0,0 -9.6921,6.83373 -9.6921,6.83373 z"
       inkscape:connector-curvature="0" />
    <g
       id="g4018"
       transform="translate(3.4986955,-54.979497)">
      <g
         transform="translate(-0.99962721,0.99962721)"
         id="g4015">
        <rect
           style="opacity:0.49816853;fill:#88aa00;stroke-width:0.1;stroke-miterlimit:4;stroke-dasharray:none;filter:url(#filter4009)"
           id="rect3950"
           width="164"
           height="116"
           x="96"
           y="436.36218"
           ry="0" />
      </g>
      <path
         transform="matrix(0.90483236,0,0,0.96031234,12.72702,18.3662)"
         inkscape:connector-curvature="0"
         id="path3960"
         d="m 98,444.36218 76,62 90,-62 z"
         style="opacity:0.42000002;fill:#ccff00;stroke:#000000;stroke-width:1px;stroke-linecap:butt;stroke-linejoin:miter;stroke-opacity:1;filter:url(#filter3970)" />
    </g>
  </g>
  <g
     inkscape:groupmode="layer"
     id="layer2"
     inkscape:label="texte"
     style="display:inline"
     transform="translate(-85.597763,-228.0745)">
    <path
       style="opacity:0;fill:#d4ff2a"
       id="path3134"
       d="m 170.70725,255.62357 c -0.42736,-4.57216 -2.03072,-9.02935 -4.07194,-13.12042 -1.77573,-4.51625 -5.20276,-5.99956 -9.61755,-7.21536 -6.12992,-0.75385 -12.25782,-0.18469 -18.31526,0.79474 -0.85284,0.24683 -1.70452,0.49771 -2.55853,0.74048 -2.70859,0.76997 -2.3542,0.53096 -4.83186,1.65903 -0.77745,0.35396 -3.03595,1.56433 -2.2988,1.13268 11.31767,-6.6272 9.84132,-5.71774 5.83371,-2.9984 -5.64238,3.86752 -9.84855,9.17057 -12.9476,15.20225 -2.68128,4.99695 -3.79415,10.57433 -4.901,16.07918 -1.54272,7.66065 -0.57336,15.3044 1.36382,22.77477 2.73454,7.99846 7.2253,15.15937 11.65253,22.29261 2.68255,4.21933 6.16916,7.48084 10.95802,8.97948 7.39736,1.31981 14.99155,1.07518 22.47933,1.09699 6.15451,0.15783 12.47946,-0.6196 18.27873,-2.79785 1.35455,-0.50878 5.15388,-2.6101 3.93885,-1.82439 -2.04953,1.32533 -4.30464,2.30182 -6.45697,3.45274 4.40392,-2.91771 7.63693,-6.95956 10.59755,-11.24903 0,0 10.71087,-4.67957 10.71087,-4.67957 l 0,0 c -2.90839,4.41265 -6.07254,8.61789 -10.45257,11.70113 -4.50721,2.6667 -8.93704,5.46874 -13.52162,8.00012 -6.72848,3.71512 -14.99818,4.18538 -22.47985,4.21009 -7.61643,-0.0349 -15.39348,0.36037 -22.8749,-1.28595 -4.91509,-1.82055 -8.55613,-5.25638 -11.29052,-9.72836 -4.41684,-7.27035 -8.94407,-14.53755 -11.78298,-22.61224 -2.0258,-7.59292 -3.10694,-15.37794 -1.67403,-23.20149 1.01054,-5.59092 2.12247,-11.27589 4.75262,-16.3652 2.98834,-6.16457 7.09509,-11.67307 12.68792,-15.73425 7.44978,-5.25803 15.21153,-10.13752 24.21724,-11.90069 6.15509,-0.93914 12.44408,-1.38553 18.62623,-0.38483 4.6612,1.41042 8.30396,3.25319 10.17235,8.02105 2.09854,4.26293 3.72056,8.8521 4.39171,13.56711 0,0 -10.5855,5.39358 -10.5855,5.39358 z"
       inkscape:connector-curvature="0" />
    <path
       style="opacity:0;fill:#d4ff2a"
       id="path3136"
       d="m 246.90341,305.53543 c 0.9617,-6.29591 1.70865,-12.65974 1.21138,-19.01982 -0.87895,-4.67477 -0.91253,-12.03629 -6.18351,-14.26881 -0.67959,-0.28784 -1.45184,-0.26636 -2.17776,-0.39955 -5.75473,0.30396 -11.46341,1.08501 -17.23046,1.40159 -13.41841,-0.23684 -26.64842,1.65626 -39.86002,3.76693 -9.48434,1.86059 -18.76895,4.91931 -27.62382,8.79408 -1.9184,0.83947 -3.57286,2.68666 -5.66675,2.71161 -1.86205,0.0222 3.25964,-1.80157 4.88945,-2.70235 -8.18146,5.55199 -13.19408,11.03352 -15.46929,20.73714 -0.62561,8.1294 1.11983,16.1173 3.25378,23.9033 2.80571,8.85808 7.97089,16.48846 14.15104,23.31263 5.81991,6.17497 13.15845,10.6046 21.04347,13.58905 9.88944,3.19379 19.17491,3.14943 29.08315,0.28509 7.7115,-2.96788 15.34978,-6.12924 22.87808,-9.53591 1.11581,-0.56495 2.23162,-1.12991 3.34744,-1.69486 0,0 -9.12755,7.29936 -9.12755,7.29936 l 0,0 c -1.12311,0.55111 -2.24622,1.10222 -3.36933,1.65333 -7.53007,3.37141 -15.15337,6.55887 -22.92245,9.33903 -10.10544,2.59083 -19.56314,2.48439 -29.53093,-0.86983 -8.00896,-3.15117 -15.47327,-7.65912 -21.34396,-14.04336 -6.26943,-6.9868 -11.49932,-14.77128 -14.4122,-23.78182 -2.24377,-7.94008 -4.01724,-16.0691 -3.57317,-24.37931 2.09257,-10.0763 6.87853,-15.76585 15.24284,-21.6749 4.94635,-2.86156 9.8248,-5.84384 14.83904,-8.58467 10.28766,-5.62332 22.04719,-8.62687 33.38156,-11.16813 13.32716,-2.0978 26.66335,-3.90888 40.18615,-3.87197 5.85003,-0.39827 11.69665,-1.49281 17.55421,-1.17953 0.80792,0.263 1.67722,0.3833 2.42376,0.78898 5.3116,2.88638 5.66811,9.96643 6.58069,15.17376 0.65984,6.41589 -0.15962,12.81179 -0.90319,19.20163 0,0 -10.67165,5.21731 -10.67165,5.21731 z"
       inkscape:connector-curvature="0" />
  </g>
</svg>
