<?xml version="1.0" encoding="UTF-8" standalone="no"?>
<!-- Created with Inkscape (http://www.inkscape.org/) -->

<svg
   xmlns:dc="http://purl.org/dc/elements/1.1/"
   xmlns:cc="http://creativecommons.org/ns#"
   xmlns:rdf="http://www.w3.org/1999/02/22-rdf-syntax-ns#"
   xmlns:svg="http://www.w3.org/2000/svg"
   xmlns="http://www.w3.org/2000/svg"
   xmlns:sodipodi="http://sodipodi.sourceforge.net/DTD/sodipodi-0.dtd"
   xmlns:inkscape="http://www.inkscape.org/namespaces/inkscape"
   width="26.150869"
   height="38.373138"
   id="svg5432"
   version="1.1"
   inkscape:version="0.48.5 r10040"
   sodipodi:docname="Nouveau document 6">
  <defs
     id="defs5434" />
  <sodipodi:namedview
     id="base"
     pagecolor="#ffffff"
     bordercolor="#666666"
     borderopacity="1.0"
     inkscape:pageopacity="0.0"
     inkscape:pageshadow="2"
     inkscape:zoom="3.7673019"
     inkscape:cx="-83.534953"
     inkscape:cy="47.724493"
     inkscape:document-units="px"
     inkscape:current-layer="layer1"
     showgrid="false"
     fit-margin-top="0"
     fit-margin-left="0"
     fit-margin-right="0"
     fit-margin-bottom="0"
     inkscape:window-width="1280"
     inkscape:window-height="734"
     inkscape:window-x="0"
     inkscape:window-y="27"
     inkscape:window-maximized="1" />
  <metadata
     id="metadata5437">
    <rdf:RDF>
      <cc:Work
         rdf:about="">
        <dc:format>image/svg+xml</dc:format>
        <dc:type
           rdf:resource="http://purl.org/dc/dcmitype/StillImage" />
        <dc:title></dc:title>
      </cc:Work>
    </rdf:RDF>
  </metadata>
  <g
     inkscape:label="Calque 1"
     inkscape:groupmode="layer"
     id="layer1"
     transform="translate(-383.53112,-590.79329)">
    <path
       style="opacity:0.82307691;color:#000000;fill:#684968;fill-opacity:1;fill-rule:nonzero;stroke:none;stroke-width:0;marker:none;visibility:visible;display:inline;overflow:visible;enable-background:accumulate"
       id="path5530"
       d="m 383.53112,629.16643 c 2.44708,-2.29641 4.77991,-4.76037 6.73517,-7.49631 0.62942,-0.88073 1.19341,-1.80642 1.79011,-2.70963 3.6871,-6.1162 6.68191,-12.61073 9.87249,-18.99068 1.80347,-3.69226 0.93717,-1.87858 2.60294,-5.43911 0,0 3.72972,-1.69737 3.72972,-1.69737 l 0,0 c -1.71461,3.59036 -0.82497,1.76246 -2.67257,5.48195 -3.23135,6.3621 -6.22886,12.85214 -9.83017,19.01916 -0.57258,0.90452 -1.11145,1.83127 -1.71773,2.71355 -1.84194,2.68045 -4.05961,5.10348 -6.35481,7.39732 0,0 -4.15515,1.72112 -4.15515,1.72112 z"
       inkscape:connector-curvature="0" />
    <path
       style="opacity:0.82307691;color:#000000;fill:#684968;fill-opacity:1;fill-rule:nonzero;stroke:none;stroke-width:0;marker:none;visibility:visible;display:inline;overflow:visible;enable-background:accumulate"
       id="path5532"
       d="m 390.1739,607.93858 c 1.56121,-1.34168 3.18179,-2.59649 4.74622,-3.93486 2.25226,-1.95073 4.2323,-4.21727 6.245,-6.43956 1.41775,-1.48195 2.74348,-2.97908 3.98284,-4.63611 0.14643,-0.20159 0.29285,-0.40317 0.43928,-0.60476 0,0 3.31867,-1.53 3.31867,-1.53 l 0,0 c -0.15069,0.20493 -0.3014,0.40987 -0.45209,0.6148 -0.55845,0.75091 -1.1182,1.51961 -1.72435,2.22675 -0.73945,0.86266 -1.58983,1.6083 -2.32122,2.47982 -3.48042,3.76741 1.69482,-1.85977 -1.87789,2.11211 -1.38329,1.53783 -2.87586,2.9664 -4.36949,4.37655 -0.53804,0.4671 -1.58235,1.38111 -2.14726,1.84375 -0.80733,0.66117 -1.66725,1.25864 -2.40857,2.00895 0,0 -3.43114,1.48256 -3.43114,1.48256 z"
       inkscape:connector-curvature="0" />
    <path
       style="opacity:0.82307691;color:#000000;fill:#684968;fill-opacity:1;fill-rule:nonzero;stroke:none;stroke-width:0;marker:none;visibility:visible;display:inline;overflow:visible;enable-background:accumulate"
       id="path5534"
       d="m 409.68193,590.94131 c -0.6782,3.07496 -1.07604,6.16683 -1.53413,9.25427 -0.43762,3.12387 -0.86178,6.25221 -0.82755,9.38784 0.04,0.89774 0.0148,0.47833 0.0708,1.25836 0,0 -3.93092,1.14946 -3.93092,1.14946 l 0,0 c 0.006,-0.80348 -0.002,-0.37173 0.026,-1.29522 0.17519,-3.17008 0.68006,-6.33014 1.12213,-9.4908 0.41961,-3.02745 0.80206,-6.05789 1.04654,-9.09158 0,0 4.02719,-1.17233 4.02719,-1.17233 z"
       inkscape:connector-curvature="0" />
  </g>
</svg>
